<?xml version="1.0" encoding="UTF-8"?>
<svg id="Layer_2" data-name="Layer 2" xmlns="http://www.w3.org/2000/svg" viewBox="0 0 377.1 277.86">
  <defs>
    <style>
      .cls-1 {
        fill: #4d6bfe;
        stroke-width: 0px;
      }
    </style>
  </defs>
  <g id="Layer_1-2" data-name="Layer 1">
    <path id="path" class="cls-1" d="M373.15,23.32c-4-1.95-5.72,1.77-8.06,3.66-.79.62-1.47,1.43-2.14,2.14-5.85,6.26-12.67,10.36-21.57,9.86-13.04-.71-24.16,3.38-33.99,13.37-2.09-12.31-9.04-19.66-19.6-24.38-5.54-2.45-11.13-4.9-14.99-10.23-2.71-3.78-3.44-8-4.81-12.16-.85-2.51-1.72-5.09-4.6-5.52-3.13-.5-4.36,2.14-5.58,4.34-4.93,8.99-6.82,18.92-6.65,28.97.43,22.58,9.97,40.56,28.89,53.37,2.16,1.46,2.71,2.95,2.03,5.09-1.29,4.4-2.82,8.68-4.19,13.09-.85,2.82-2.14,3.44-5.15,2.2-10.39-4.34-19.37-10.76-27.29-18.55-13.46-13.02-25.63-27.41-40.81-38.67-3.57-2.64-7.12-5.09-10.81-7.41-15.49-15.07,2.03-27.45,6.08-28.9,4.25-1.52,1.47-6.79-12.23-6.73-13.69.06-26.24,4.65-42.21,10.76-2.34.93-4.79,1.61-7.32,2.14-14.5-2.73-29.55-3.35-45.29-1.58-29.62,3.32-53.28,17.34-70.68,41.28C1.29,88.2-3.63,120.88,2.39,155c6.33,35.91,24.64,65.68,52.8,88.94,29.18,24.1,62.8,35.91,101.15,33.65,23.29-1.33,49.23-4.46,78.48-29.24,7.38,3.66,15.12,5.12,27.97,6.23,9.89.93,19.41-.5,26.79-2.02,11.55-2.45,10.75-13.15,6.58-15.13-33.87-15.78-26.44-9.36-33.2-14.54,17.21-20.41,43.15-41.59,53.3-110.19.79-5.46.11-8.87,0-13.3-.06-2.67.54-3.72,3.61-4.03,8.48-.96,16.72-3.29,24.28-7.47,21.94-12,30.78-31.69,32.87-55.33.31-3.6-.06-7.35-3.86-9.24ZM181.96,235.97c-32.83-25.83-48.74-34.33-55.31-33.96-6.14.34-5.04,7.38-3.69,11.97,1.41,4.53,3.26,7.66,5.85,11.63,1.78,2.64,3.01,6.57-1.78,9.49-10.57,6.58-28.95-2.2-29.82-2.64-21.38-12.59-39.26-29.24-51.87-52.01-12.16-21.92-19.23-45.43-20.39-70.52-.31-6.08,1.47-8.22,7.49-9.3,7.92-1.46,16.11-1.77,24.03-.62,33.49,4.9,62.01,19.91,85.9,43.63,13.65,13.55,23.97,29.71,34.61,45.49,11.3,16.78,23.48,32.75,38.97,45.84,5.46,4.59,9.83,8.09,14,10.67-12.59,1.4-33.62,1.71-47.99-9.68ZM197.69,134.65c0-2.7,2.15-4.84,4.87-4.84.6,0,1.16.12,1.66.31.67.25,1.29.62,1.77,1.18.87.84,1.36,2.08,1.36,3.35,0,2.7-2.15,4.84-4.85,4.84s-4.81-2.14-4.81-4.84ZM246.55,159.77c-3.13,1.27-6.26,2.39-9.27,2.51-4.67.22-9.77-1.68-12.55-4-4.3-3.6-7.36-5.61-8.67-11.94-.54-2.7-.23-6.85.25-9.24,1.12-5.15-.12-8.44-3.74-11.44-2.96-2.45-6.7-3.1-10.82-3.1-1.54,0-2.95-.68-4-1.24-1.72-.87-3.13-3.01-1.78-5.64.43-.84,2.53-2.92,3.02-3.29,5.58-3.19,12.03-2.14,18,.25,5.54,2.26,9.71,6.42,15.72,12.28,6.16,7.1,7.26,9.09,10.76,14.39,2.76,4.19,5.29,8.47,7.01,13.37,1.04,3.04-.31,5.55-3.94,7.1Z"/>
  </g>
</svg>